<svg width="127" height="51" viewBox="0 0 127 51" fill="none" xmlns="http://www.w3.org/2000/svg">
<path d="M45.6961 17V0.199999H50.3521L57.0721 11.168H54.6241L61.1521 0.199999H65.8081L65.8561 17H60.6961L60.6481 7.976H61.4641L57.0001 15.488H54.5041L49.8481 7.976H50.8561V17H45.6961ZM71.3066 21.896C70.5866 21.896 69.8506 21.784 69.0986 21.56C68.3626 21.352 67.7706 21.072 67.3226 20.72L69.1226 17C69.3946 17.208 69.6986 17.376 70.0346 17.504C70.3866 17.632 70.7226 17.696 71.0426 17.696C71.5226 17.696 71.8906 17.592 72.1466 17.384C72.4026 17.192 72.6106 16.896 72.7706 16.496L73.3226 15.104L73.7066 14.576L77.9066 3.872H83.0426L77.6426 17.264C77.1626 18.464 76.6026 19.4 75.9626 20.072C75.3386 20.744 74.6346 21.216 73.8506 21.488C73.0826 21.76 72.2346 21.896 71.3066 21.896ZM72.5786 17.6L66.8666 3.872H72.4346L76.3706 14.096L72.5786 17.6ZM0.477863 46V29.2H6.14186V41.608H13.7259V46H0.477863ZM15.1224 46V32.872H20.5464V46H15.1224ZM17.8344 31.816C16.8424 31.816 16.0504 31.552 15.4584 31.024C14.8664 30.496 14.5704 29.84 14.5704 29.056C14.5704 28.272 14.8664 27.616 15.4584 27.088C16.0504 26.56 16.8424 26.296 17.8344 26.296C18.8264 26.296 19.6184 26.544 20.2104 27.04C20.8024 27.536 21.0984 28.176 21.0984 28.96C21.0984 29.792 20.8024 30.48 20.2104 31.024C19.6184 31.552 18.8264 31.816 17.8344 31.816ZM31.7105 46.24C30.5105 46.24 29.5425 46 28.8065 45.52C28.0705 45.04 27.5345 44.296 27.1985 43.288C26.8785 42.28 26.7185 40.992 26.7185 39.424C26.7185 37.872 26.8945 36.6 27.2465 35.608C27.5985 34.6 28.1425 33.856 28.8785 33.376C29.6305 32.88 30.5745 32.632 31.7105 32.632C32.8625 32.632 33.9185 32.904 34.8785 33.448C35.8385 33.992 36.6065 34.776 37.1825 35.8C37.7585 36.808 38.0465 38.016 38.0465 39.424C38.0465 40.832 37.7585 42.048 37.1825 43.072C36.6065 44.08 35.8385 44.864 34.8785 45.424C33.9185 45.968 32.8625 46.24 31.7105 46.24ZM22.9505 46V28.192H28.3745V34.624L28.1345 39.424L28.1105 44.224V46H22.9505ZM30.4145 42.016C30.8145 42.016 31.1745 41.92 31.4945 41.728C31.8145 41.536 32.0705 41.248 32.2625 40.864C32.4545 40.464 32.5505 39.984 32.5505 39.424C32.5505 38.848 32.4545 38.376 32.2625 38.008C32.0705 37.624 31.8145 37.336 31.4945 37.144C31.1745 36.952 30.8145 36.856 30.4145 36.856C30.0145 36.856 29.6545 36.952 29.3345 37.144C29.0145 37.336 28.7585 37.624 28.5665 38.008C28.3745 38.376 28.2785 38.848 28.2785 39.424C28.2785 39.984 28.3745 40.464 28.5665 40.864C28.7585 41.248 29.0145 41.536 29.3345 41.728C29.6545 41.92 30.0145 42.016 30.4145 42.016ZM39.7552 46V32.872H44.9152V36.832L44.0752 35.704C44.4752 34.68 45.1152 33.912 45.9952 33.4C46.8752 32.888 47.9312 32.632 49.1632 32.632V37.432C48.9232 37.4 48.7072 37.376 48.5152 37.36C48.3392 37.344 48.1552 37.336 47.9632 37.336C47.1472 37.336 46.4752 37.552 45.9472 37.984C45.4352 38.4 45.1792 39.128 45.1792 40.168V46H39.7552ZM57.9179 46V43.672L57.5339 43.048V38.632C57.5339 37.992 57.3339 37.504 56.9339 37.168C56.5499 36.832 55.9179 36.664 55.0379 36.664C54.4459 36.664 53.8459 36.76 53.2379 36.952C52.6299 37.128 52.1099 37.376 51.6779 37.696L49.9499 34.12C50.7179 33.64 51.6379 33.272 52.7099 33.016C53.7819 32.76 54.8299 32.632 55.8539 32.632C58.1099 32.632 59.8539 33.136 61.0859 34.144C62.3339 35.152 62.9579 36.752 62.9579 38.944V46H57.9179ZM54.1979 46.24C53.1259 46.24 52.2299 46.056 51.5099 45.688C50.7899 45.32 50.2459 44.832 49.8779 44.224C49.5099 43.6 49.3259 42.912 49.3259 42.16C49.3259 41.312 49.5419 40.592 49.9739 40C50.4059 39.408 51.0619 38.96 51.9419 38.656C52.8379 38.352 53.9659 38.2 55.3259 38.2H58.0619V40.816H56.1899C55.6139 40.816 55.1899 40.912 54.9179 41.104C54.6619 41.28 54.5339 41.552 54.5339 41.92C54.5339 42.224 54.6459 42.48 54.8699 42.688C55.1099 42.88 55.4299 42.976 55.8299 42.976C56.1979 42.976 56.5339 42.88 56.8379 42.688C57.1579 42.48 57.3899 42.16 57.5339 41.728L58.2299 43.336C58.0219 44.312 57.5819 45.04 56.9099 45.52C56.2379 46 55.3339 46.24 54.1979 46.24ZM65.3021 46V32.872H70.4621V36.832L69.6221 35.704C70.0221 34.68 70.6621 33.912 71.5421 33.4C72.4221 32.888 73.4781 32.632 74.7101 32.632V37.432C74.4701 37.4 74.2541 37.376 74.0621 37.36C73.8861 37.344 73.7021 37.336 73.5101 37.336C72.6941 37.336 72.0221 37.552 71.4941 37.984C70.9821 38.4 70.7261 39.128 70.7261 40.168V46H65.3021ZM79.4789 50.896C78.7589 50.896 78.0229 50.784 77.2709 50.56C76.5349 50.352 75.9429 50.072 75.4949 49.72L77.2949 46C77.5669 46.208 77.8709 46.376 78.2069 46.504C78.5589 46.632 78.8949 46.696 79.2149 46.696C79.6949 46.696 80.0629 46.592 80.3189 46.384C80.5749 46.192 80.7829 45.896 80.9429 45.496L81.4949 44.104L81.8789 43.576L86.0789 32.872H91.2149L85.8149 46.264C85.3349 47.464 84.7749 48.4 84.1349 49.072C83.5109 49.744 82.8069 50.216 82.0229 50.488C81.2549 50.76 80.4069 50.896 79.4789 50.896ZM80.7509 46.6L75.0389 32.872H80.6069L84.5429 43.096L80.7509 46.6ZM92.5542 46.09C92.2742 46.09 92.0342 45.995 91.8342 45.805C91.6342 45.605 91.5342 45.355 91.5342 45.055C91.5342 44.755 91.6342 44.51 91.8342 44.32C92.0342 44.13 92.2742 44.035 92.5542 44.035C92.8242 44.035 93.0542 44.13 93.2442 44.32C93.4442 44.51 93.5442 44.755 93.5442 45.055C93.5442 45.355 93.4442 45.605 93.2442 45.805C93.0542 45.995 92.8242 46.09 92.5542 46.09ZM98.8969 46.09C98.0869 46.09 97.3619 45.915 96.7219 45.565C96.0919 45.215 95.5969 44.735 95.2369 44.125C94.8769 43.515 94.6969 42.815 94.6969 42.025C94.6969 41.235 94.8769 40.535 95.2369 39.925C95.5969 39.315 96.0919 38.84 96.7219 38.5C97.3619 38.15 98.0869 37.975 98.8969 37.975C99.6169 37.975 100.257 38.12 100.817 38.41C101.387 38.69 101.827 39.11 102.137 39.67L101.042 40.375C100.782 39.985 100.462 39.7 100.082 39.52C99.7119 39.33 99.3119 39.235 98.8819 39.235C98.3619 39.235 97.8969 39.35 97.4869 39.58C97.0769 39.81 96.7519 40.135 96.5119 40.555C96.2719 40.965 96.1519 41.455 96.1519 42.025C96.1519 42.595 96.2719 43.09 96.5119 43.51C96.7519 43.93 97.0769 44.255 97.4869 44.485C97.8969 44.715 98.3619 44.83 98.8819 44.83C99.3119 44.83 99.7119 44.74 100.082 44.56C100.462 44.37 100.782 44.08 101.042 43.69L102.137 44.38C101.827 44.93 101.387 45.355 100.817 45.655C100.257 45.945 99.6169 46.09 98.8969 46.09ZM107.289 46.09C106.489 46.09 105.779 45.915 105.159 45.565C104.539 45.215 104.049 44.735 103.689 44.125C103.329 43.505 103.149 42.805 103.149 42.025C103.149 41.235 103.329 40.535 103.689 39.925C104.049 39.315 104.539 38.84 105.159 38.5C105.779 38.15 106.489 37.975 107.289 37.975C108.079 37.975 108.784 38.15 109.404 38.5C110.034 38.84 110.524 39.315 110.874 39.925C111.234 40.525 111.414 41.225 111.414 42.025C111.414 42.815 111.234 43.515 110.874 44.125C110.524 44.735 110.034 45.215 109.404 45.565C108.784 45.915 108.079 46.09 107.289 46.09ZM107.289 44.83C107.799 44.83 108.254 44.715 108.654 44.485C109.064 44.255 109.384 43.93 109.614 43.51C109.844 43.08 109.959 42.585 109.959 42.025C109.959 41.455 109.844 40.965 109.614 40.555C109.384 40.135 109.064 39.81 108.654 39.58C108.254 39.35 107.799 39.235 107.289 39.235C106.779 39.235 106.324 39.35 105.924 39.58C105.524 39.81 105.204 40.135 104.964 40.555C104.724 40.965 104.604 41.455 104.604 42.025C104.604 42.585 104.724 43.08 104.964 43.51C105.204 43.93 105.524 44.255 105.924 44.485C106.324 44.715 106.779 44.83 107.289 44.83ZM123.351 37.975C123.991 37.975 124.556 38.1 125.046 38.35C125.536 38.6 125.916 38.98 126.186 39.49C126.466 40 126.606 40.645 126.606 41.425V46H125.166V41.59C125.166 40.82 124.986 40.24 124.626 39.85C124.266 39.46 123.761 39.265 123.111 39.265C122.631 39.265 122.211 39.365 121.851 39.565C121.491 39.765 121.211 40.06 121.011 40.45C120.821 40.84 120.726 41.325 120.726 41.905V46H119.286V41.59C119.286 40.82 119.106 40.24 118.746 39.85C118.396 39.46 117.891 39.265 117.231 39.265C116.761 39.265 116.346 39.365 115.986 39.565C115.626 39.765 115.346 40.06 115.146 40.45C114.946 40.84 114.846 41.325 114.846 41.905V46H113.406V38.05H114.786V40.165L114.561 39.625C114.811 39.105 115.196 38.7 115.716 38.41C116.236 38.12 116.841 37.975 117.531 37.975C118.291 37.975 118.946 38.165 119.496 38.545C120.046 38.915 120.406 39.48 120.576 40.24L119.991 40C120.231 39.39 120.651 38.9 121.251 38.53C121.851 38.16 122.551 37.975 123.351 37.975Z" fill="#544C6C"/>
</svg>
